<?xml version="1.0" encoding="utf-8"?>
<!-- Generator: Adobe Illustrator 26.3.1, SVG Export Plug-In . SVG Version: 6.00 Build 0)  -->
<svg version="1.1" id="Layer_1" xmlns="http://www.w3.org/2000/svg" xmlns:xlink="http://www.w3.org/1999/xlink" x="0px" y="0px"
	 viewBox="0 0 8184 8192" style="enable-background:new 0 0 8184 8192;" xml:space="preserve">
<style type="text/css">
	.st0{fill:#F1F1F1;}
	.st1{fill:#F1F1F1;stroke:#000000;stroke-miterlimit:10;}
</style>
<path class="st0" d="M1601.1,8150.7c145.5-205,1325.1-1917,1325.7-1923.9c0.6-4.3-24.1-22.3-55.1-39
	c-265.6-148.6-499.1-383.9-729.4-735.6c-221.7-338.7-343-663.8-392.6-1049.5c-16.1-125.1-16.1-482.4,0-606.8
	c61.3-468.1,218-840.3,508.4-1204.3c71.2-89.8,294.7-315.2,382.7-386.4c370.9-301.5,759.8-468.7,1221.7-526.9
	c143-18.6,369-21.7,1559.1-21.7H6621v510.8v510.8h-226c-124.5,0-226,1.2-226,3.1c0,1.9,16.1,27.9,35.9,57.6
	c185.8,276.2,310.8,571.5,372.1,878c34.7,169.7,40.2,238.4,40.2,466.9c0,216.1-6.2,302.2-34.1,464.4
	c-84.8,495.4-326.3,942.4-710.8,1313.9c-418.6,405-900.9,628.5-1468.1,679.9c-87.9,8-354.8,8.7-413,1.2l-39-5l-217.3,309.6
	c-119.5,170.9-219.2,313.9-221.1,318.9c-2.5,6.8,184.5,7.4,1197.5,3.7l1200.6-4.3l18.6,30.3c17.3,28.5,57,85.4,249.5,363.5
	c45.2,65,106.5,154.8,136.8,198.8c31,44.6,74.3,107.1,96.6,139.3c22.9,32.2,63.2,91,90.4,130c26.6,39,61.3,89.2,76.8,111.5
	c15.5,22.3,27.9,42.1,27.9,44.6c0,3.1-1132.5,5-2517.7,5h-2517L1601.1,8150.7z M4425.9,5514.8c247.7-42.7,450.2-133.7,644-289.8
	c75.5-60.7,189.5-177.1,249.5-255.1c154.2-199.4,252-443.3,279.3-695.4c8.7-77.4,8.7-260.7,0-338.1
	c-33.4-309.6-164.1-586.4-385.8-816.7c-276.8-287.9-593.8-429.1-988.2-439.6c-199.4-5.6-348.6,14.9-513.9,70
	C3359,2866.5,3047,3145.7,2881,3491.3c-95.4,198.1-132.5,368.4-132.5,608.1c-0.6,185.8,17.3,305.3,68.7,461.9
	c133.7,409.9,484.8,764.1,891,899.1c87.9,29.1,202.5,55.1,290.4,65.6C4085.4,5536.5,4340.5,5529.7,4425.9,5514.8z"/>
<path class="st1" d="M1558.4,4.5l717.7,1032.8h3614.3l735-1033.4L1558.4,4.5z M5816.9,912.3H2363.3l-542.2-780.3h4550.6
	L5816.9,912.3z"/>
</svg>
